<?xml version="1.0" encoding="utf-8"?>
<!-- Generator: Adobe Illustrator 19.2.1, SVG Export Plug-In . SVG Version: 6.00 Build 0)  -->
<svg version="1.1"
	 id="Calque_1" xmlns:cc="http://creativecommons.org/ns#" xmlns:dc="http://purl.org/dc/elements/1.1/" xmlns:inkscape="http://www.inkscape.org/namespaces/inkscape" xmlns:rdf="http://www.w3.org/1999/02/22-rdf-syntax-ns#" xmlns:sodipodi="http://sodipodi.sourceforge.net/DTD/sodipodi-0.dtd" xmlns:svg="http://www.w3.org/2000/svg"
	 xmlns="http://www.w3.org/2000/svg" xmlns:xlink="http://www.w3.org/1999/xlink" x="0px" y="0px" viewBox="0 0 91.2 81.2"
	 style="enable-background:new 0 0 91.2 81.2;" xml:space="preserve">
<style type="text/css">
	.st0{fill:#155E69;}
</style>
<g>
	<g transform="translate(0,-1004.3622)">
		<path class="st0" d="M46,1013.5c-13.2,0-24,10.8-24,24s10.8,24,24,24s24-10.8,24-24S59.3,1013.5,46,1013.5z M46,1014.5
			c12.7,0,23,10.3,23,23c0,12.7-10.3,23-23,23s-23-10.3-23-23C23,1024.7,33.3,1014.5,46,1014.5z M46,1021.5l-1.5,2v0.4
			c-1.3,0.3-2.4,1.1-3.3,2.1h-3.6c-0.1,0-0.1,0-0.2,0h0v0c-0.2,0.1-0.4,0.3-0.4,0.5c0,0.5-0.3,1-0.8,1.3c-0.5,0.3-1,0.3-1.5,0
			c-0.5-0.3-0.8-0.8-0.8-1.3c0-0.3-0.2-0.5-0.5-0.5c0,0,0,0,0,0c-0.3,0-0.5,0.2-0.5,0.5c0,0,0,0,0,0c0,0.8,0.4,1.6,1.1,2l-3,8.7
			c0,0.1,0,0.2,0,0.3c0,0,0,0,0,0c0,1.6,0.9,3.1,2.2,3.9c1.4,0.8,3.1,0.8,4.5,0c1.4-0.8,2.3-2.3,2.2-3.9c0,0,0,0,0,0
			c0-0.1,0-0.2,0-0.3l-3-8.7c0.5-0.4,0.9-0.9,1-1.5h6.6v1.5H45v18.1c-1.4,0.3-2.6,1.1-3.4,1.9h-3.1v2h15v-2h-2.8
			c-0.9-0.8-2.3-1.6-3.8-1.9v-18.1h0.5v-1.5h6.6c0.1,0.6,0.5,1.2,1,1.5l-3,8.7c0,0.1,0,0.2,0,0.3c0,0,0,0,0,0c0,1.6,0.9,3.1,2.2,3.9
			c1.4,0.8,3.1,0.8,4.5,0c1.4-0.8,2.3-2.3,2.2-3.9c0,0,0,0,0,0c0-0.1,0-0.2,0-0.3l-3-8.7c0.7-0.5,1.1-1.2,1.1-2
			c0-0.3-0.2-0.5-0.5-0.5c0,0,0,0,0,0c-0.3,0-0.5,0.2-0.5,0.5c0,0,0,0,0,0c0,0.5-0.3,1-0.8,1.3c-0.5,0.3-1,0.3-1.5,0
			c-0.5-0.3-0.7-0.8-0.8-1.3c0-0.2-0.2-0.4-0.4-0.5v0h0c-0.1,0-0.1,0-0.2,0h-3.6c-0.9-1-2-1.7-3.3-2v-0.5L46,1021.5z M44.5,1024.9v1
			h-1.9C43.2,1025.5,43.8,1025.2,44.5,1024.9z M47.5,1025c0.7,0.2,1.3,0.6,1.9,1h-1.9V1025z M35.5,1026c-0.3,0-0.5,0.2-0.5,0.5
			s0.2,0.5,0.5,0.5s0.5-0.2,0.5-0.5S35.8,1026,35.5,1026z M56.5,1026c-0.3,0-0.5,0.2-0.5,0.5s0.2,0.5,0.5,0.5s0.5-0.2,0.5-0.5
			S56.8,1026,56.5,1026z M35,1028.9c0.3,0.1,0.7,0.1,1,0l2.8,8.1h-3.3h-3.3L35,1028.9z M56,1028.9c0.3,0.1,0.7,0.1,1,0l2.8,8.1h-3.3
			h-3.3L56,1028.9z"/>
	</g>
	<ellipse class="st0" cx="45.8" cy="45.5" rx="12.9" ry="3.6"/>
</g>
</svg>
