<svg id="Calque_1" data-name="Calque 1" xmlns="http://www.w3.org/2000/svg" viewBox="0 0 48 48"><defs><style>.cls-1{fill:#099;}</style></defs><title>legalhero</title><path class="cls-1" d="M46,9.09a24,24,0,1,0,24,24A24,24,0,0,0,46,9.09Zm0,1a23,23,0,1,1-23,23A23,23,0,0,1,46,10.09Zm0,7-1.5,2v0.43a6.58,6.58,0,0,0-3.29,2.08H37.61a0.5,0.5,0,0,0-.17,0h0a0.5,0.5,0,0,0-.39.49,1.5,1.5,0,0,1-3,0,0.5,0.5,0,0,0-.49-0.51h0a0.5,0.5,0,0,0-.49.51h0a2.48,2.48,0,0,0,1.07,2l-3,8.67a0.5,0.5,0,0,0,0,.26v0a4.5,4.5,0,0,0,9,0v0a0.5,0.5,0,0,0,0-.27l-3-8.67a2.48,2.48,0,0,0,1-1.52h6.57v1.49H45V42.19a6.28,6.28,0,0,0-3.41,1.91H38.52v2h15v-2H50.77A7.5,7.5,0,0,0,47,42.2V24.09h0.5V22.6h6.57a2.48,2.48,0,0,0,1,1.52l-3,8.67a0.5,0.5,0,0,0,0,.26v0a4.5,4.5,0,0,0,9,0v0a0.5,0.5,0,0,0,0-.27l-3-8.67a2.49,2.49,0,0,0,1.06-2,0.5,0.5,0,0,0-.49-0.51h0a0.5,0.5,0,0,0-.51.49s0,0,0,0a1.5,1.5,0,0,1-3,0,0.5,0.5,0,0,0-.38-0.49h0a0.5,0.5,0,0,0-.17,0H50.8a6.64,6.64,0,0,0-3.28-2V19.09Zm-1.5,3.48v1H42.64A5.56,5.56,0,0,1,44.52,20.57Zm3,0a5.62,5.62,0,0,1,1.86,1H47.52v-1Zm-12,1a0.5,0.5,0,1,0,.5.5A0.5,0.5,0,0,0,35.52,21.59Zm21,0a0.5,0.5,0,1,0,.5.5A0.5,0.5,0,0,0,56.52,21.59ZM35,24.53a2.49,2.49,0,0,0,1,0l2.82,8.07H32.18Zm21,0a2.5,2.5,0,0,0,1,0l2.82,8.07H53.18Z" transform="translate(-22.02 -9.09)"/><ellipse class="cls-1" cx="23.74" cy="36.39" rx="12.86" ry="3.58"/></svg>
